<svg xmlns="http://www.w3.org/2000/svg" viewBox="0 0 499 499"><defs><style>.cls-1{fill:#ddd;}.cls-2{fill:#fff;}</style></defs><g id="Layer_2" data-name="Layer 2"><g id="Placeholder_without_arrows_copy" data-name="Placeholder without arrows copy"><rect class="cls-1" width="499" height="499"/><path class="cls-2" d="M117.78284,263.121a6.76472,6.76472,0,0,1-7.28794-7.28842v-40.516q.86144-.15643,2.74265-.43108a25.03027,25.03027,0,0,1,3.6048-.27441,16.3413,16.3413,0,0,1,3.17373.27441,5.65661,5.65661,0,0,1,2.312.97941,4.236,4.236,0,0,1,1.4105,1.95931,9.54892,9.54892,0,0,1,.47048,3.29147v30.9549h17.94617a10.34661,10.34661,0,0,1,1.01835,2.31206,9.7148,9.7148,0,0,1,.47048,3.01706q0,3.13576-1.33216,4.42755a4.85069,4.85069,0,0,1-3.52647,1.29371Z"/><path class="cls-2" d="M188.31275,243.84217a23.61021,23.61021,0,0,1-1.48931,8.65951,17.54056,17.54056,0,0,1-4.19255,6.38686,17.8152,17.8152,0,0,1-6.4652,3.91815,24.98976,24.98976,0,0,1-8.38558,1.33312,23.73263,23.73263,0,0,1-8.3851-1.411,18.43781,18.43781,0,0,1-6.4652-4.03588,17.99068,17.99068,0,0,1-4.193-6.38686,22.83,22.83,0,0,1-1.48883-8.46392,22.60259,22.60259,0,0,1,1.48883-8.3851,17.99921,17.99921,0,0,1,4.193-6.38686,18.45964,18.45964,0,0,1,6.4652-4.03637,23.73293,23.73293,0,0,1,8.3851-1.41049,23.16419,23.16419,0,0,1,8.38558,1.4499,18.94871,18.94871,0,0,1,6.4652,4.07529,18.01111,18.01111,0,0,1,4.19255,6.38686A22.39993,22.39993,0,0,1,188.31275,243.84217Zm-27.42892,0q0,4.78078,1.84157,7.32735a5.97384,5.97384,0,0,0,5.133,2.54706,5.75,5.75,0,0,0,5.05471-2.586q1.76323-2.58646,1.76323-7.28843,0-4.7022-1.80216-7.249a6.36717,6.36717,0,0,0-10.18774,0Q160.88288,239.14069,160.88383,243.84217Z"/><path class="cls-2" d="M210.64706,223.62335a32.2,32.2,0,0,1,7.7195.86216,17.29052,17.29052,0,0,1,5.95579,2.62539,11.85066,11.85066,0,0,1,3.80088,4.467,14.30624,14.30624,0,0,1,1.33216,6.38686v17.554a4.86436,4.86436,0,0,1-1.13608,3.33088,11.35083,11.35083,0,0,1-2.70373,2.23372q-5.09506,3.05646-14.34136,3.05647a32.77815,32.77815,0,0,1-7.484-.78431,17.72863,17.72863,0,0,1-5.72079-2.351,10.77047,10.77047,0,0,1-3.68314-3.99647,11.82739,11.82739,0,0,1-1.29323-5.64245q0-5.40722,3.21314-8.30725,3.21217-2.89788,9.95274-3.6048l10.26608-1.09716v-.54834a3.36022,3.36022,0,0,0-1.99872-3.25254,13.45553,13.45553,0,0,0-5.75971-.97942,26.6651,26.6651,0,0,0-5.79912.62716,30.84533,30.84533,0,0,0-5.09411,1.56716,5.4185,5.4185,0,0,1-1.72383-2.15491,6.81125,6.81125,0,0,1-.70549-3.01754,5.02891,5.02891,0,0,1,.97942-3.25206,7.58446,7.58446,0,0,1,3.01754-2.07657,23.57944,23.57944,0,0,1,5.368-1.25383A46.63929,46.63929,0,0,1,210.64706,223.62335Zm.62716,30.79872a17.50865,17.50865,0,0,0,2.93872-.27441,7.16939,7.16939,0,0,0,2.39039-.74442v-6.2696l-5.64245.47a8.703,8.703,0,0,0-3.60481.94049,2.53307,2.53307,0,0,0-1.411,2.351,3.11511,3.11511,0,0,0,1.2149,2.54706A6.6412,6.6412,0,0,0,211.27422,254.42207Z"/><path class="cls-2" d="M235.959,243.84217a23.43479,23.43479,0,0,1,1.56764-8.97284,17.13282,17.13282,0,0,1,4.34922-6.30853,17.87123,17.87123,0,0,1,6.50461-3.72255,25.75535,25.75535,0,0,1,8.03235-1.2149,16.86265,16.86265,0,0,1,3.05647.27441,12.29175,12.29175,0,0,1,2.4298.66608V211.86845a21.34165,21.34165,0,0,1,2.50765-.50941,22.42535,22.42535,0,0,1,3.52647-.27441,18.43754,18.43754,0,0,1,3.09491.235,5.28232,5.28232,0,0,1,2.31253.94049,4.25623,4.25623,0,0,1,1.41,1.9199,8.9526,8.9526,0,0,1,.47,3.17421V254.5004a6.68724,6.68724,0,0,1-3.44766,5.87745,23.87055,23.87055,0,0,1-5.87745,2.62491,30.55748,30.55748,0,0,1-17.43676-.27393,18.51849,18.51849,0,0,1-6.81794-4.07529,17.502,17.502,0,0,1-4.232-6.38686A23.04576,23.04576,0,0,1,235.959,243.84217Zm22.256-9.79607a8.47393,8.47393,0,0,0-6.50413,2.42979q-2.27361,2.43-2.27264,7.36628,0,4.86007,2.116,7.32735a7.60753,7.60753,0,0,0,6.11294,2.46873,7.12994,7.12994,0,0,0,2.54706-.43108,5.8053,5.8053,0,0,0,1.76275-.97942V234.98659A7.18479,7.18479,0,0,0,258.215,234.0461Z"/><path class="cls-2" d="M283.21461,214.21943a6.8894,6.8894,0,0,1,1.99824-5.01578,7.88622,7.88622,0,0,1,10.57941,0,7.29357,7.29357,0,0,1,0,10.03108,7.88485,7.88485,0,0,1-10.57941,0A6.88287,6.88287,0,0,1,283.21461,214.21943Zm13.94922,48.58726q-.8636.15714-2.54706.43155a21.23083,21.23083,0,0,1-3.40921.27393,18.4244,18.4244,0,0,1-3.09491-.23452,5.27806,5.27806,0,0,1-2.31254-.941,4.51521,4.51521,0,0,1-1.44941-1.9199,8.29626,8.29626,0,0,1-.50942-3.17373V225.34766q.86072-.15642,2.54706-.43108a21.19568,21.19568,0,0,1,3.40921-.27441,18.43739,18.43739,0,0,1,3.09491.235,5.27359,5.27359,0,0,1,2.31158.94048,4.529,4.529,0,0,1,1.45038,1.91991,8.32782,8.32782,0,0,1,.50941,3.17421Z"/><path class="cls-2" d="M329.76422,238.74854a4.37382,4.37382,0,0,0-1.3706-3.56588,5.66382,5.66382,0,0,0-3.72255-1.13656,12.42628,12.42628,0,0,0-3.09587.39215,7.81782,7.81782,0,0,0-2.62491,1.17549v27.19295a18.00668,18.00668,0,0,1-2.4692.471,25.22955,25.22955,0,0,1-3.48707.23452,18.44444,18.44444,0,0,1-3.09587-.23452,5.27408,5.27408,0,0,1-2.31158-.941,4.51521,4.51521,0,0,1-1.44941-1.9199,8.29626,8.29626,0,0,1-.50942-3.17373V233.73276a6.04022,6.04022,0,0,1,.9006-3.44814,9.52118,9.52118,0,0,1,2.46921-2.42931,22.43857,22.43857,0,0,1,6.7002-3.05647,32.04317,32.04317,0,0,1,8.97332-1.17549q8.85512,0,13.63588,3.87922,4.77935,3.879,4.77982,10.77549v24.52863a18.01641,18.01641,0,0,1-2.46824.471,25.22944,25.22944,0,0,1-3.48707.23452,18.43641,18.43641,0,0,1-3.09587-.23452,5.26921,5.26921,0,0,1-2.31157-.941,4.517,4.517,0,0,1-1.45038-1.9199,8.29626,8.29626,0,0,1-.50942-3.17373Z"/><path class="cls-2" d="M369.88853,223.62335a27.18492,27.18492,0,0,1,8.11021,1.13657,21.3982,21.3982,0,0,1,6.15234,2.93872,9.53144,9.53144,0,0,1,2.46824,2.42932,6.04774,6.04774,0,0,1,.90156,3.44813v27.42843a15.37333,15.37333,0,0,1-1.56764,7.17117,14.429,14.429,0,0,1-4.27136,5.0153,18.19656,18.19656,0,0,1-6.34746,2.93824,31.08081,31.08081,0,0,1-7.79784.941q-7.13079,0-11.20608-1.92038a6.46152,6.46152,0,0,1-4.07529-6.2302,6.53618,6.53618,0,0,1,.74489-3.17373,6.29219,6.29219,0,0,1,1.68491-2.077,26.39859,26.39859,0,0,0,5.13255,2.11646,20.42346,20.42346,0,0,0,5.91686.86215,13.75871,13.75871,0,0,0,6.73961-1.411,4.824,4.824,0,0,0,2.50765-4.54529v-1.25383a19.46077,19.46077,0,0,1-7.83628,1.4105,21.05467,21.05467,0,0,1-6.7002-1.05775,14.982,14.982,0,0,1-5.56412-3.29147,16.132,16.132,0,0,1-3.84077-5.76019,21.98143,21.98143,0,0,1-1.44942-8.3851,20.777,20.777,0,0,1,1.52824-8.30725,15.826,15.826,0,0,1,4.232-5.83805,17.70628,17.70628,0,0,1,6.42627-3.44813A27.68232,27.68232,0,0,1,369.88853,223.62335Zm4.85863,11.36324a7.97578,7.97578,0,0,0-1.60705-.62668,9.40844,9.40844,0,0,0-2.62491-.31381q-3.84076,0-5.76019,2.15538a8.9432,8.9432,0,0,0-1.92039,6.15187q0,4.54576,1.92039,6.54353a6.496,6.496,0,0,0,4.898,1.99823,7.98892,7.98892,0,0,0,5.09412-1.48882Z"/></g></g></svg>