<svg xmlns="http://www.w3.org/2000/svg" viewBox="0 0 491 491"><defs><style>.cls-1{fill:#ddd;}.cls-2{fill:#f1f1f1;}.cls-3{fill:none;stroke:#f1f1f1;stroke-linecap:round;stroke-linejoin:round;stroke-width:6.19014px;}</style></defs><g id="Layer_2" data-name="Layer 2"><g id="Placeholder_with_arrows" data-name="Placeholder with arrows"><rect class="cls-1" width="491" height="491"/><path class="cls-2" d="M360.32679,141.228a30.35342,30.35342,0,0,0-30.41463-30.49721c-57.01015-.00159-114.02152.194-171.02983-.13235-14.94161-.08555-28.30184,13.51317-28.31666,28.42255q-.07536,75.91394-.012,151.828a21.49721,21.49721,0,0,0,7.54111,16.61669,29.35318,29.35318,0,0,0,20.201,7.43852q45.11057.02057,90.22111.00556,45.43509,0,90.87014-.01107c11.28323-.012,18.52492-6.27015,20.37889-17.33036a46.65754,46.65754,0,0,0,.56591-7.76319Q360.32213,215.51655,360.32679,141.228ZM147.942,128.33494a13.51438,13.51438,0,0,1,10.54109-4.78306q86.00208.09052,172.00427.05193c8.94065.0036,16.96271,7.79607,16.97642,16.62554q.08417,54.45648.01916,108.91316c0,.50165-.076,1.0033-.158,2.01818-6.89775-5.69095-13.4551-11.098-20.00906-16.50923-6.84221-5.64914-13.74245-11.2303-20.48117-17.00077-1.832-1.56873-2.94116-1.57948-4.77665.00286-10.24056,8.828-20.6024,17.515-31.02729,26.33862-11.418-12.43185-22.84863-24.71452-34.04611-37.20692-2.23205-2.49024-3.57722-2.39474-6.15713-.58487-28.92494,20.29138-57.94384,40.44846-87.44236,60.99336V264.333q.00007-61.77168-.03446-123.54333A17.74491,17.74491,0,0,1,147.942,128.33494Zm199.5033,163.86321a15.71191,15.71191,0,0,1-.92166,5.741,5.688,5.688,0,0,1-5.34955,4.02657c-1.72914.06316-3.45965.12292-5.18953.12335q-43.81357.01119-87.62711.00534-43.97605,0-87.952.00577c-3.69644.00133-7.32237-.17247-10.70525-1.97863-4.07019-2.17308-5.92151-5.38757-6.44115-10.08243-.69906-6.31632,1.534-10.01917,6.84407-13.62985,26.8122-18.23148,53.30826-36.93026,79.85762-55.54762,1.8105-1.26957,2.67208-1.09683,4.11138.49064,11.1998,12.35286,22.545,24.57348,33.73218,36.93762,1.57514,1.74089,2.42157,1.878,4.24192.30577,10.07359-8.70052,20.32055-17.19955,30.398-25.89568,1.683-1.45226,2.57779-1.3494,4.22429.02653q19.30455,16.1322,38.80323,32.03058a4.93964,4.93964,0,0,1,2.06053,4.35859C347.4096,276.80841,347.45042,284.50378,347.44528,292.19815Z"/><path class="cls-2" d="M286.34032,192.873a23.39122,23.39122,0,0,0,.0927-46.78235,23.39124,23.39124,0,1,0-.0927,46.78235Zm.0413-33.97607a10.63394,10.63394,0,1,1-10.532,10.46756A10.63753,10.63753,0,0,1,286.38162,158.897Z"/><line class="cls-3" x1="258.33401" y1="379.40192" x2="309.62943" y2="379.40192"/><polygon class="cls-2" points="293.221 399.655 289.843 396.028 307.729 379.407 289.843 362.78 293.221 359.153 315 379.407 293.221 399.655"/><line class="cls-3" x1="231.43724" y1="379.40192" x2="180.1418" y2="379.40192"/><polygon class="cls-2" points="196.551 359.149 199.929 362.776 182.042 379.397 199.929 396.023 196.551 399.65 174.771 379.397 196.551 359.149"/></g></g></svg>