<svg xmlns="http://www.w3.org/2000/svg" viewBox="0 0 491 491"><defs><style>.cls-1{fill:#ddd;}.cls-2{fill:#f1f1f1;}</style></defs><g id="Layer_2" data-name="Layer 2"><g id="Placeholder_without_arrows" data-name="Placeholder without arrows"><rect class="cls-1" width="491" height="491"/><path class="cls-2" d="M359.89307,173.47068a30.35342,30.35342,0,0,0-30.41463-30.49722c-57.01015-.00158-114.02152.194-171.02983-.13234-14.94161-.08555-28.30184,13.51317-28.31667,28.42254q-.07534,75.91394-.012,151.828a21.49723,21.49723,0,0,0,7.54111,16.6167,29.35317,29.35317,0,0,0,20.201,7.43851q45.11056.02058,90.22111.00556,45.43509,0,90.87014-.01106c11.28323-.012,18.52492-6.27016,20.37888-17.33037a46.65644,46.65644,0,0,0,.56592-7.76318Q359.88841,247.75917,359.89307,173.47068ZM147.50826,160.57757a13.5144,13.5144,0,0,1,10.54109-4.78305q86.00208.09052,172.00427.05193c8.94065.0036,16.96271,7.79606,16.97642,16.62554q.08416,54.45646.01916,108.91316c0,.50164-.076,1.00329-.158,2.01818-6.89775-5.691-13.4551-11.09806-20.00906-16.50924-6.84221-5.64913-13.74245-11.23029-20.48117-17.00076-1.832-1.56874-2.94116-1.57948-4.77665.00285-10.24056,8.828-20.6024,17.515-31.02729,26.33862-11.418-12.43185-22.84863-24.71451-34.04611-37.20692-2.23205-2.49023-3.57722-2.39473-6.15713-.58487-28.92494,20.29139-57.94384,40.44846-87.44236,60.99337v-2.8607q.00007-61.77169-.03447-123.54334A17.745,17.745,0,0,1,147.50826,160.57757Zm199.5033,163.86321a15.712,15.712,0,0,1-.92166,5.741,5.688,5.688,0,0,1-5.34956,4.02657c-1.72913.06315-3.45964.12292-5.18952.12334q-43.81357.01121-87.62711.00535-43.97605,0-87.952.00577c-3.69644.00132-7.32237-.17247-10.70525-1.97863-4.07019-2.17308-5.92151-5.38757-6.44115-10.08243-.69906-6.31633,1.534-10.01917,6.84406-13.62985,26.81221-18.23149,53.30827-36.93026,79.85763-55.54762,1.8105-1.26958,2.67208-1.09684,4.11137.49063,11.19981,12.35287,22.545,24.57349,33.73219,36.93763,1.57514,1.74088,2.42157,1.87805,4.24192.30577,10.07359-8.70052,20.32055-17.19955,30.398-25.89568,1.683-1.45227,2.57779-1.34941,4.22429.02652q19.30455,16.13221,38.80323,32.03058a4.93965,4.93965,0,0,1,2.06053,4.3586C346.97588,309.051,347.0167,316.74642,347.01156,324.44078Z"/><path class="cls-2" d="M285.9066,225.11566a23.39123,23.39123,0,0,0,.0927-46.78236,23.39124,23.39124,0,1,0-.0927,46.78236Zm.0413-33.97608a10.63394,10.63394,0,1,1-10.532,10.46756A10.63754,10.63754,0,0,1,285.9479,191.13958Z"/></g></g></svg>