<svg xmlns="http://www.w3.org/2000/svg" viewBox="0 0 65 65"><defs><style>.cls-1{fill:none;stroke:#000;stroke-linecap:round;stroke-miterlimit:10;stroke-width:1.5px;}</style></defs><g id="Layer_2" data-name="Layer 2"><g id="to_top" data-name="to top"><path d="M59.38184,1.5A4.12284,4.12284,0,0,1,63.5,5.61818V59.38182A4.12284,4.12284,0,0,1,59.38184,63.5H5.61816A4.12284,4.12284,0,0,1,1.5,59.38182V5.61818A4.12284,4.12284,0,0,1,5.61816,1.5H59.38184m0-1.5H5.61816A5.61816,5.61816,0,0,0,0,5.61818V59.38182A5.61816,5.61816,0,0,0,5.61816,65H59.38184A5.61816,5.61816,0,0,0,65,59.38182V5.61818A5.61816,5.61816,0,0,0,59.38184,0Z"/><line class="cls-1" x1="32.5" y1="52.5" x2="32.5" y2="17.30348"/><path d="M39.69971,27.55493a.75031.75031,0,0,1-1.03565-.23L32.5,17.64605,26.33594,27.325a.75015.75015,0,1,1-1.26563-.80567L31.86719,15.8471a.7504.7504,0,0,1,1.26562,0l6.79688,10.67218a.75054.75054,0,0,1-.23,1.03565Z"/></g></g></svg>